<mxfile host="www.draw.io" modified="2020-02-21T02:08:25.998Z" agent="Mozilla/5.0 (Macintosh; Intel Mac OS X 10_15_3) AppleWebKit/537.36 (KHTML, like Gecko) Chrome/79.0.3945.130 Safari/537.36" etag="vhEG4wpwRtxbITqJ7iRR" version="12.7.2" type="github">
  <diagram id="C5RBs43oDa-KdzZeNtuy" name="Page-1">
    <mxGraphModel dx="1186" dy="678" grid="1" gridSize="10" guides="1" tooltips="1" connect="1" arrows="1" fold="1" page="1" pageScale="1" pageWidth="1169" pageHeight="827" math="0" shadow="0">
      <root>
        <mxCell id="WIyWlLk6GJQsqaUBKTNV-0" />
        <mxCell id="WIyWlLk6GJQsqaUBKTNV-1" parent="WIyWlLk6GJQsqaUBKTNV-0" />
        <mxCell id="WpqvaXjn4N4Qf2wbFjVm-0" value="&lt;font size=&quot;1&quot;&gt;&lt;b style=&quot;font-size: 25px&quot;&gt;Outreach ER Diagram&lt;/b&gt;&lt;/font&gt;" style="text;html=1;strokeColor=none;fillColor=none;align=center;verticalAlign=middle;whiteSpace=wrap;rounded=0;" parent="WIyWlLk6GJQsqaUBKTNV-1" vertex="1">
          <mxGeometry x="480" y="49.99999999999999" width="196.86" height="50" as="geometry" />
        </mxCell>
        <mxCell id="WpqvaXjn4N4Qf2wbFjVm-1" value="Reports to" style="rhombus;whiteSpace=wrap;html=1;" parent="WIyWlLk6GJQsqaUBKTNV-1" vertex="1">
          <mxGeometry x="515.8899999999999" y="182.94" width="116.18" height="110" as="geometry" />
        </mxCell>
        <mxCell id="WpqvaXjn4N4Qf2wbFjVm-2" value="Managed By" style="rhombus;whiteSpace=wrap;html=1;" parent="WIyWlLk6GJQsqaUBKTNV-1" vertex="1">
          <mxGeometry x="509.99999999999994" y="342.94" width="126.18" height="120" as="geometry" />
        </mxCell>
        <mxCell id="WpqvaXjn4N4Qf2wbFjVm-3" value="Faculty" style="rounded=0;whiteSpace=wrap;html=1;" parent="WIyWlLk6GJQsqaUBKTNV-1" vertex="1">
          <mxGeometry x="800" y="292.82" width="120" height="60" as="geometry" />
        </mxCell>
        <mxCell id="WpqvaXjn4N4Qf2wbFjVm-4" value="Name" style="ellipse;whiteSpace=wrap;html=1;" parent="WIyWlLk6GJQsqaUBKTNV-1" vertex="1">
          <mxGeometry x="825" y="222.82" width="70" height="40" as="geometry" />
        </mxCell>
        <mxCell id="WpqvaXjn4N4Qf2wbFjVm-5" value="Lname" style="ellipse;whiteSpace=wrap;html=1;" parent="WIyWlLk6GJQsqaUBKTNV-1" vertex="1">
          <mxGeometry x="910" y="152.82" width="70" height="40" as="geometry" />
        </mxCell>
        <mxCell id="WpqvaXjn4N4Qf2wbFjVm-6" value="Fname" style="ellipse;whiteSpace=wrap;html=1;" parent="WIyWlLk6GJQsqaUBKTNV-1" vertex="1">
          <mxGeometry x="740" y="152.82" width="70" height="40" as="geometry" />
        </mxCell>
        <mxCell id="WpqvaXjn4N4Qf2wbFjVm-7" value="&lt;u&gt;Email&lt;/u&gt;" style="ellipse;whiteSpace=wrap;html=1;" parent="WIyWlLk6GJQsqaUBKTNV-1" vertex="1">
          <mxGeometry x="970" y="222.82" width="70" height="40" as="geometry" />
        </mxCell>
        <mxCell id="WpqvaXjn4N4Qf2wbFjVm-8" value="Password" style="ellipse;whiteSpace=wrap;html=1;" parent="WIyWlLk6GJQsqaUBKTNV-1" vertex="1">
          <mxGeometry x="980" y="302.82" width="70" height="40" as="geometry" />
        </mxCell>
        <mxCell id="WpqvaXjn4N4Qf2wbFjVm-10" value="" style="shape=link;html=1;entryX=1;entryY=0.5;entryDx=0;entryDy=0;exitX=0;exitY=0.5;exitDx=0;exitDy=0;" parent="WIyWlLk6GJQsqaUBKTNV-1" source="WpqvaXjn4N4Qf2wbFjVm-3" target="WpqvaXjn4N4Qf2wbFjVm-1" edge="1">
          <mxGeometry width="50" height="50" relative="1" as="geometry">
            <mxPoint x="479.71" y="532.94" as="sourcePoint" />
            <mxPoint x="529.71" y="482.94" as="targetPoint" />
          </mxGeometry>
        </mxCell>
        <mxCell id="WpqvaXjn4N4Qf2wbFjVm-11" value="" style="shape=link;html=1;entryX=1;entryY=0.5;entryDx=0;entryDy=0;exitX=0;exitY=0.5;exitDx=0;exitDy=0;" parent="WIyWlLk6GJQsqaUBKTNV-1" source="WpqvaXjn4N4Qf2wbFjVm-3" target="WpqvaXjn4N4Qf2wbFjVm-2" edge="1">
          <mxGeometry width="50" height="50" relative="1" as="geometry">
            <mxPoint x="769.71" y="322.94" as="sourcePoint" />
            <mxPoint x="642.0699999999999" y="247.94" as="targetPoint" />
          </mxGeometry>
        </mxCell>
        <mxCell id="WpqvaXjn4N4Qf2wbFjVm-12" value="" style="endArrow=none;html=1;entryX=0.5;entryY=0;entryDx=0;entryDy=0;exitX=0.5;exitY=1;exitDx=0;exitDy=0;" parent="WIyWlLk6GJQsqaUBKTNV-1" source="WpqvaXjn4N4Qf2wbFjVm-4" target="WpqvaXjn4N4Qf2wbFjVm-3" edge="1">
          <mxGeometry width="50" height="50" relative="1" as="geometry">
            <mxPoint x="390" y="572.82" as="sourcePoint" />
            <mxPoint x="440" y="522.82" as="targetPoint" />
          </mxGeometry>
        </mxCell>
        <mxCell id="WpqvaXjn4N4Qf2wbFjVm-13" value="" style="endArrow=none;html=1;entryX=0.5;entryY=1;entryDx=0;entryDy=0;exitX=0;exitY=0.5;exitDx=0;exitDy=0;" parent="WIyWlLk6GJQsqaUBKTNV-1" source="WpqvaXjn4N4Qf2wbFjVm-4" target="WpqvaXjn4N4Qf2wbFjVm-6" edge="1">
          <mxGeometry width="50" height="50" relative="1" as="geometry">
            <mxPoint x="870" y="272.82" as="sourcePoint" />
            <mxPoint x="870" y="302.82" as="targetPoint" />
          </mxGeometry>
        </mxCell>
        <mxCell id="WpqvaXjn4N4Qf2wbFjVm-14" value="" style="endArrow=none;html=1;entryX=0.5;entryY=1;entryDx=0;entryDy=0;exitX=1;exitY=0.5;exitDx=0;exitDy=0;" parent="WIyWlLk6GJQsqaUBKTNV-1" source="WpqvaXjn4N4Qf2wbFjVm-4" target="WpqvaXjn4N4Qf2wbFjVm-5" edge="1">
          <mxGeometry width="50" height="50" relative="1" as="geometry">
            <mxPoint x="880" y="282.82" as="sourcePoint" />
            <mxPoint x="880" y="312.82" as="targetPoint" />
          </mxGeometry>
        </mxCell>
        <mxCell id="WpqvaXjn4N4Qf2wbFjVm-15" value="" style="endArrow=none;html=1;entryX=0.993;entryY=0.39;entryDx=0;entryDy=0;exitX=0;exitY=0.5;exitDx=0;exitDy=0;entryPerimeter=0;" parent="WIyWlLk6GJQsqaUBKTNV-1" source="WpqvaXjn4N4Qf2wbFjVm-7" target="WpqvaXjn4N4Qf2wbFjVm-3" edge="1">
          <mxGeometry width="50" height="50" relative="1" as="geometry">
            <mxPoint x="890" y="292.82" as="sourcePoint" />
            <mxPoint x="890" y="322.82" as="targetPoint" />
          </mxGeometry>
        </mxCell>
        <mxCell id="WpqvaXjn4N4Qf2wbFjVm-16" value="" style="endArrow=none;html=1;entryX=1;entryY=0.5;entryDx=0;entryDy=0;exitX=0;exitY=0.5;exitDx=0;exitDy=0;" parent="WIyWlLk6GJQsqaUBKTNV-1" source="WpqvaXjn4N4Qf2wbFjVm-8" target="WpqvaXjn4N4Qf2wbFjVm-3" edge="1">
          <mxGeometry width="50" height="50" relative="1" as="geometry">
            <mxPoint x="900" y="302.82" as="sourcePoint" />
            <mxPoint x="900" y="332.82" as="targetPoint" />
          </mxGeometry>
        </mxCell>
        <mxCell id="WpqvaXjn4N4Qf2wbFjVm-17" value="Volunteer" style="rounded=0;whiteSpace=wrap;html=1;" parent="WIyWlLk6GJQsqaUBKTNV-1" vertex="1">
          <mxGeometry x="240" y="292.94" width="120" height="60" as="geometry" />
        </mxCell>
        <mxCell id="WpqvaXjn4N4Qf2wbFjVm-18" value="" style="shape=link;html=1;entryX=0;entryY=0.5;entryDx=0;entryDy=0;exitX=1;exitY=0.5;exitDx=0;exitDy=0;" parent="WIyWlLk6GJQsqaUBKTNV-1" source="WpqvaXjn4N4Qf2wbFjVm-17" target="WpqvaXjn4N4Qf2wbFjVm-1" edge="1">
          <mxGeometry width="50" height="50" relative="1" as="geometry">
            <mxPoint x="240" y="532.94" as="sourcePoint" />
            <mxPoint x="290" y="482.94" as="targetPoint" />
          </mxGeometry>
        </mxCell>
        <mxCell id="WpqvaXjn4N4Qf2wbFjVm-19" value="" style="endArrow=none;html=1;entryX=1;entryY=0.5;entryDx=0;entryDy=0;exitX=0;exitY=0.5;exitDx=0;exitDy=0;" parent="WIyWlLk6GJQsqaUBKTNV-1" source="WpqvaXjn4N4Qf2wbFjVm-2" target="WpqvaXjn4N4Qf2wbFjVm-17" edge="1">
          <mxGeometry width="50" height="50" relative="1" as="geometry">
            <mxPoint x="240" y="532.94" as="sourcePoint" />
            <mxPoint x="290" y="482.94" as="targetPoint" />
          </mxGeometry>
        </mxCell>
        <mxCell id="WpqvaXjn4N4Qf2wbFjVm-20" value="Password" style="ellipse;whiteSpace=wrap;html=1;" parent="WIyWlLk6GJQsqaUBKTNV-1" vertex="1">
          <mxGeometry x="210" y="412.94" width="70" height="40" as="geometry" />
        </mxCell>
        <mxCell id="WpqvaXjn4N4Qf2wbFjVm-21" value="Total Hours" style="ellipse;whiteSpace=wrap;html=1;" parent="WIyWlLk6GJQsqaUBKTNV-1" vertex="1">
          <mxGeometry x="330" y="412.94" width="70" height="40" as="geometry" />
        </mxCell>
        <mxCell id="WpqvaXjn4N4Qf2wbFjVm-22" value="Skills" style="ellipse;whiteSpace=wrap;html=1;" parent="WIyWlLk6GJQsqaUBKTNV-1" vertex="1">
          <mxGeometry x="110" y="387.94" width="70" height="40" as="geometry" />
        </mxCell>
        <mxCell id="WpqvaXjn4N4Qf2wbFjVm-23" value="Gender" style="ellipse;whiteSpace=wrap;html=1;" parent="WIyWlLk6GJQsqaUBKTNV-1" vertex="1">
          <mxGeometry x="100" y="322.94" width="70" height="40" as="geometry" />
        </mxCell>
        <mxCell id="WpqvaXjn4N4Qf2wbFjVm-24" value="&lt;u&gt;Email&lt;/u&gt;" style="ellipse;whiteSpace=wrap;html=1;" parent="WIyWlLk6GJQsqaUBKTNV-1" vertex="1">
          <mxGeometry x="100" y="262.82" width="70" height="40" as="geometry" />
        </mxCell>
        <mxCell id="WpqvaXjn4N4Qf2wbFjVm-25" value="Eligibility&amp;nbsp;" style="ellipse;whiteSpace=wrap;html=1;" parent="WIyWlLk6GJQsqaUBKTNV-1" vertex="1">
          <mxGeometry x="140" y="212.94" width="70" height="40" as="geometry" />
        </mxCell>
        <mxCell id="WpqvaXjn4N4Qf2wbFjVm-26" value="Name" style="ellipse;whiteSpace=wrap;html=1;" parent="WIyWlLk6GJQsqaUBKTNV-1" vertex="1">
          <mxGeometry x="265" y="212.94" width="70" height="40" as="geometry" />
        </mxCell>
        <mxCell id="WpqvaXjn4N4Qf2wbFjVm-27" value="Fname" style="ellipse;whiteSpace=wrap;html=1;" parent="WIyWlLk6GJQsqaUBKTNV-1" vertex="1">
          <mxGeometry x="195" y="142.94" width="70" height="40" as="geometry" />
        </mxCell>
        <mxCell id="WpqvaXjn4N4Qf2wbFjVm-28" value="Lname" style="ellipse;whiteSpace=wrap;html=1;" parent="WIyWlLk6GJQsqaUBKTNV-1" vertex="1">
          <mxGeometry x="340" y="142.94" width="70" height="40" as="geometry" />
        </mxCell>
        <mxCell id="WpqvaXjn4N4Qf2wbFjVm-29" value="Past Events" style="ellipse;whiteSpace=wrap;html=1;" parent="WIyWlLk6GJQsqaUBKTNV-1" vertex="1">
          <mxGeometry x="360" y="217.94" width="70" height="40" as="geometry" />
        </mxCell>
        <mxCell id="WpqvaXjn4N4Qf2wbFjVm-30" value="" style="ellipse;whiteSpace=wrap;html=1;fillColor=none;" parent="WIyWlLk6GJQsqaUBKTNV-1" vertex="1">
          <mxGeometry x="105" y="382.94" width="80" height="50" as="geometry" />
        </mxCell>
        <mxCell id="WpqvaXjn4N4Qf2wbFjVm-31" value="" style="endArrow=none;html=1;entryX=0.75;entryY=1;entryDx=0;entryDy=0;exitX=0.5;exitY=0;exitDx=0;exitDy=0;" parent="WIyWlLk6GJQsqaUBKTNV-1" source="WpqvaXjn4N4Qf2wbFjVm-21" target="WpqvaXjn4N4Qf2wbFjVm-17" edge="1">
          <mxGeometry width="50" height="50" relative="1" as="geometry">
            <mxPoint x="100" y="532.94" as="sourcePoint" />
            <mxPoint x="150" y="482.94" as="targetPoint" />
          </mxGeometry>
        </mxCell>
        <mxCell id="WpqvaXjn4N4Qf2wbFjVm-33" value="" style="endArrow=none;html=1;exitX=0.5;exitY=0;exitDx=0;exitDy=0;entryX=0.5;entryY=1;entryDx=0;entryDy=0;" parent="WIyWlLk6GJQsqaUBKTNV-1" source="WpqvaXjn4N4Qf2wbFjVm-20" target="WpqvaXjn4N4Qf2wbFjVm-17" edge="1">
          <mxGeometry width="50" height="50" relative="1" as="geometry">
            <mxPoint x="345" y="422.94" as="sourcePoint" />
            <mxPoint x="300" y="382.94" as="targetPoint" />
          </mxGeometry>
        </mxCell>
        <mxCell id="WpqvaXjn4N4Qf2wbFjVm-34" value="" style="endArrow=none;html=1;exitX=1;exitY=0.5;exitDx=0;exitDy=0;entryX=0.25;entryY=1;entryDx=0;entryDy=0;" parent="WIyWlLk6GJQsqaUBKTNV-1" source="WpqvaXjn4N4Qf2wbFjVm-30" target="WpqvaXjn4N4Qf2wbFjVm-17" edge="1">
          <mxGeometry width="50" height="50" relative="1" as="geometry">
            <mxPoint x="355" y="432.94" as="sourcePoint" />
            <mxPoint x="360" y="382.94" as="targetPoint" />
          </mxGeometry>
        </mxCell>
        <mxCell id="WpqvaXjn4N4Qf2wbFjVm-35" value="" style="endArrow=none;html=1;entryX=0;entryY=0.75;entryDx=0;entryDy=0;exitX=1;exitY=0.5;exitDx=0;exitDy=0;" parent="WIyWlLk6GJQsqaUBKTNV-1" source="WpqvaXjn4N4Qf2wbFjVm-23" target="WpqvaXjn4N4Qf2wbFjVm-17" edge="1">
          <mxGeometry width="50" height="50" relative="1" as="geometry">
            <mxPoint x="100" y="532.94" as="sourcePoint" />
            <mxPoint x="150" y="482.94" as="targetPoint" />
          </mxGeometry>
        </mxCell>
        <mxCell id="WpqvaXjn4N4Qf2wbFjVm-36" value="" style="endArrow=none;html=1;entryX=0;entryY=0.25;entryDx=0;entryDy=0;exitX=1;exitY=0.5;exitDx=0;exitDy=0;" parent="WIyWlLk6GJQsqaUBKTNV-1" source="WpqvaXjn4N4Qf2wbFjVm-24" target="WpqvaXjn4N4Qf2wbFjVm-17" edge="1">
          <mxGeometry width="50" height="50" relative="1" as="geometry">
            <mxPoint x="180" y="352.94" as="sourcePoint" />
            <mxPoint x="250" y="347.94" as="targetPoint" />
          </mxGeometry>
        </mxCell>
        <mxCell id="WpqvaXjn4N4Qf2wbFjVm-37" value="" style="endArrow=none;html=1;exitX=0.668;exitY=0.982;exitDx=0;exitDy=0;exitPerimeter=0;" parent="WIyWlLk6GJQsqaUBKTNV-1" source="WpqvaXjn4N4Qf2wbFjVm-25" target="WpqvaXjn4N4Qf2wbFjVm-17" edge="1">
          <mxGeometry width="50" height="50" relative="1" as="geometry">
            <mxPoint x="180" y="292.8199999999999" as="sourcePoint" />
            <mxPoint x="252.03999999999996" y="341.04000000000013" as="targetPoint" />
          </mxGeometry>
        </mxCell>
        <mxCell id="WpqvaXjn4N4Qf2wbFjVm-38" value="" style="endArrow=none;html=1;entryX=0.5;entryY=1;entryDx=0;entryDy=0;exitX=0.75;exitY=0;exitDx=0;exitDy=0;" parent="WIyWlLk6GJQsqaUBKTNV-1" source="WpqvaXjn4N4Qf2wbFjVm-17" target="WpqvaXjn4N4Qf2wbFjVm-29" edge="1">
          <mxGeometry width="50" height="50" relative="1" as="geometry">
            <mxPoint x="100" y="532.94" as="sourcePoint" />
            <mxPoint x="150" y="482.94" as="targetPoint" />
          </mxGeometry>
        </mxCell>
        <mxCell id="WpqvaXjn4N4Qf2wbFjVm-39" value="" style="endArrow=none;html=1;entryX=0.5;entryY=1;entryDx=0;entryDy=0;exitX=0.5;exitY=0;exitDx=0;exitDy=0;" parent="WIyWlLk6GJQsqaUBKTNV-1" source="WpqvaXjn4N4Qf2wbFjVm-17" target="WpqvaXjn4N4Qf2wbFjVm-26" edge="1">
          <mxGeometry width="50" height="50" relative="1" as="geometry">
            <mxPoint x="100" y="532.94" as="sourcePoint" />
            <mxPoint x="150" y="482.94" as="targetPoint" />
          </mxGeometry>
        </mxCell>
        <mxCell id="WpqvaXjn4N4Qf2wbFjVm-40" value="" style="endArrow=none;html=1;entryX=0.5;entryY=1;entryDx=0;entryDy=0;exitX=0.5;exitY=0;exitDx=0;exitDy=0;" parent="WIyWlLk6GJQsqaUBKTNV-1" source="WpqvaXjn4N4Qf2wbFjVm-26" target="WpqvaXjn4N4Qf2wbFjVm-27" edge="1">
          <mxGeometry width="50" height="50" relative="1" as="geometry">
            <mxPoint x="100" y="532.94" as="sourcePoint" />
            <mxPoint x="150" y="482.94" as="targetPoint" />
          </mxGeometry>
        </mxCell>
        <mxCell id="WpqvaXjn4N4Qf2wbFjVm-41" value="" style="endArrow=none;html=1;entryX=0.5;entryY=1;entryDx=0;entryDy=0;exitX=0.5;exitY=0;exitDx=0;exitDy=0;" parent="WIyWlLk6GJQsqaUBKTNV-1" source="WpqvaXjn4N4Qf2wbFjVm-26" target="WpqvaXjn4N4Qf2wbFjVm-28" edge="1">
          <mxGeometry width="50" height="50" relative="1" as="geometry">
            <mxPoint x="310" y="222.94" as="sourcePoint" />
            <mxPoint x="240" y="192.94" as="targetPoint" />
          </mxGeometry>
        </mxCell>
        <mxCell id="WpqvaXjn4N4Qf2wbFjVm-42" value="Works For" style="rhombus;whiteSpace=wrap;html=1;" parent="WIyWlLk6GJQsqaUBKTNV-1" vertex="1">
          <mxGeometry x="249.99999999999991" y="502.94" width="126.18" height="120" as="geometry" />
        </mxCell>
        <mxCell id="WpqvaXjn4N4Qf2wbFjVm-43" value="Controls" style="rhombus;whiteSpace=wrap;html=1;" parent="WIyWlLk6GJQsqaUBKTNV-1" vertex="1">
          <mxGeometry x="720" y="402.94" width="126.18" height="120" as="geometry" />
        </mxCell>
        <mxCell id="WpqvaXjn4N4Qf2wbFjVm-44" value="&lt;span style=&quot;font-weight: normal&quot;&gt;Event&lt;/span&gt;" style="rounded=0;whiteSpace=wrap;html=1;fontStyle=1" parent="WIyWlLk6GJQsqaUBKTNV-1" vertex="1">
          <mxGeometry x="516.1800000000001" y="532.94" width="120" height="60" as="geometry" />
        </mxCell>
        <mxCell id="WpqvaXjn4N4Qf2wbFjVm-45" value="" style="endArrow=none;html=1;entryX=0.5;entryY=0;entryDx=0;entryDy=0;exitX=0.615;exitY=1.027;exitDx=0;exitDy=0;exitPerimeter=0;" parent="WIyWlLk6GJQsqaUBKTNV-1" source="WpqvaXjn4N4Qf2wbFjVm-17" target="WpqvaXjn4N4Qf2wbFjVm-42" edge="1">
          <mxGeometry width="50" height="50" relative="1" as="geometry">
            <mxPoint x="340" y="412.94" as="sourcePoint" />
            <mxPoint x="150" y="642.94" as="targetPoint" />
          </mxGeometry>
        </mxCell>
        <mxCell id="WpqvaXjn4N4Qf2wbFjVm-46" value="" style="endArrow=none;html=1;entryX=1;entryY=0.5;entryDx=0;entryDy=0;exitX=0;exitY=0.5;exitDx=0;exitDy=0;" parent="WIyWlLk6GJQsqaUBKTNV-1" source="WpqvaXjn4N4Qf2wbFjVm-44" target="WpqvaXjn4N4Qf2wbFjVm-42" edge="1">
          <mxGeometry width="50" height="50" relative="1" as="geometry">
            <mxPoint x="100" y="692.94" as="sourcePoint" />
            <mxPoint x="150" y="642.94" as="targetPoint" />
          </mxGeometry>
        </mxCell>
        <mxCell id="WpqvaXjn4N4Qf2wbFjVm-47" value="" style="endArrow=none;html=1;entryX=1;entryY=0.5;entryDx=0;entryDy=0;exitX=0.5;exitY=1;exitDx=0;exitDy=0;" parent="WIyWlLk6GJQsqaUBKTNV-1" source="WpqvaXjn4N4Qf2wbFjVm-43" target="WpqvaXjn4N4Qf2wbFjVm-44" edge="1">
          <mxGeometry width="50" height="50" relative="1" as="geometry">
            <mxPoint x="585" y="572.94" as="sourcePoint" />
            <mxPoint x="525.8900000000001" y="572.94" as="targetPoint" />
          </mxGeometry>
        </mxCell>
        <mxCell id="WpqvaXjn4N4Qf2wbFjVm-48" value="" style="endArrow=none;html=1;entryX=0.5;entryY=0;entryDx=0;entryDy=0;exitX=0.5;exitY=1;exitDx=0;exitDy=0;" parent="WIyWlLk6GJQsqaUBKTNV-1" source="WpqvaXjn4N4Qf2wbFjVm-3" target="WpqvaXjn4N4Qf2wbFjVm-43" edge="1">
          <mxGeometry width="50" height="50" relative="1" as="geometry">
            <mxPoint x="100" y="692.94" as="sourcePoint" />
            <mxPoint x="150" y="642.94" as="targetPoint" />
          </mxGeometry>
        </mxCell>
        <mxCell id="WpqvaXjn4N4Qf2wbFjVm-49" value="In Charge Of" style="rhombus;whiteSpace=wrap;html=1;" parent="WIyWlLk6GJQsqaUBKTNV-1" vertex="1">
          <mxGeometry x="881.91" y="402.94" width="126.18" height="120" as="geometry" />
        </mxCell>
        <mxCell id="WpqvaXjn4N4Qf2wbFjVm-50" value="" style="endArrow=none;html=1;entryX=0.5;entryY=0;entryDx=0;entryDy=0;exitX=0.5;exitY=1;exitDx=0;exitDy=0;" parent="WIyWlLk6GJQsqaUBKTNV-1" source="WpqvaXjn4N4Qf2wbFjVm-3" target="WpqvaXjn4N4Qf2wbFjVm-49" edge="1">
          <mxGeometry width="50" height="50" relative="1" as="geometry">
            <mxPoint x="100" y="692.94" as="sourcePoint" />
            <mxPoint x="150" y="642.94" as="targetPoint" />
          </mxGeometry>
        </mxCell>
        <mxCell id="WpqvaXjn4N4Qf2wbFjVm-51" value="Inventory" style="rounded=0;whiteSpace=wrap;html=1;" parent="WIyWlLk6GJQsqaUBKTNV-1" vertex="1">
          <mxGeometry x="885" y="592.94" width="120" height="60" as="geometry" />
        </mxCell>
        <mxCell id="WpqvaXjn4N4Qf2wbFjVm-52" value="" style="endArrow=none;html=1;entryX=0.5;entryY=1;entryDx=0;entryDy=0;exitX=0.5;exitY=0;exitDx=0;exitDy=0;" parent="WIyWlLk6GJQsqaUBKTNV-1" source="WpqvaXjn4N4Qf2wbFjVm-51" target="WpqvaXjn4N4Qf2wbFjVm-49" edge="1">
          <mxGeometry width="50" height="50" relative="1" as="geometry">
            <mxPoint x="100" y="722.94" as="sourcePoint" />
            <mxPoint x="150" y="672.94" as="targetPoint" />
          </mxGeometry>
        </mxCell>
        <mxCell id="WpqvaXjn4N4Qf2wbFjVm-55" value="Language" style="ellipse;whiteSpace=wrap;html=1;" parent="WIyWlLk6GJQsqaUBKTNV-1" vertex="1">
          <mxGeometry x="400" y="387.94" width="70" height="40" as="geometry" />
        </mxCell>
        <mxCell id="WpqvaXjn4N4Qf2wbFjVm-57" value="" style="ellipse;whiteSpace=wrap;html=1;fillColor=none;" parent="WIyWlLk6GJQsqaUBKTNV-1" vertex="1">
          <mxGeometry x="395" y="380.44" width="80" height="55" as="geometry" />
        </mxCell>
        <mxCell id="WpqvaXjn4N4Qf2wbFjVm-58" value="" style="endArrow=none;html=1;entryX=1;entryY=1;entryDx=0;entryDy=0;exitX=0.25;exitY=0.086;exitDx=0;exitDy=0;exitPerimeter=0;" parent="WIyWlLk6GJQsqaUBKTNV-1" source="WpqvaXjn4N4Qf2wbFjVm-57" target="WpqvaXjn4N4Qf2wbFjVm-17" edge="1">
          <mxGeometry width="50" height="50" relative="1" as="geometry">
            <mxPoint x="100" y="722.94" as="sourcePoint" />
            <mxPoint x="150" y="672.94" as="targetPoint" />
          </mxGeometry>
        </mxCell>
        <mxCell id="WpqvaXjn4N4Qf2wbFjVm-59" value="Name" style="ellipse;whiteSpace=wrap;html=1;" parent="WIyWlLk6GJQsqaUBKTNV-1" vertex="1">
          <mxGeometry x="790" y="662.94" width="70" height="40" as="geometry" />
        </mxCell>
        <mxCell id="WpqvaXjn4N4Qf2wbFjVm-60" value="&lt;u&gt;Tag Number&lt;/u&gt;" style="ellipse;whiteSpace=wrap;html=1;" parent="WIyWlLk6GJQsqaUBKTNV-1" vertex="1">
          <mxGeometry x="860" y="712.94" width="70" height="40" as="geometry" />
        </mxCell>
        <mxCell id="WpqvaXjn4N4Qf2wbFjVm-61" value="Quantity" style="ellipse;whiteSpace=wrap;html=1;" parent="WIyWlLk6GJQsqaUBKTNV-1" vertex="1">
          <mxGeometry x="960" y="712.94" width="70" height="40" as="geometry" />
        </mxCell>
        <mxCell id="WpqvaXjn4N4Qf2wbFjVm-62" value="Category" style="ellipse;whiteSpace=wrap;html=1;" parent="WIyWlLk6GJQsqaUBKTNV-1" vertex="1">
          <mxGeometry x="1030" y="662.94" width="70" height="40" as="geometry" />
        </mxCell>
        <mxCell id="WpqvaXjn4N4Qf2wbFjVm-63" value="" style="endArrow=none;html=1;entryX=0;entryY=1;entryDx=0;entryDy=0;exitX=1;exitY=0;exitDx=0;exitDy=0;" parent="WIyWlLk6GJQsqaUBKTNV-1" source="WpqvaXjn4N4Qf2wbFjVm-59" target="WpqvaXjn4N4Qf2wbFjVm-51" edge="1">
          <mxGeometry width="50" height="50" relative="1" as="geometry">
            <mxPoint x="100" y="822.94" as="sourcePoint" />
            <mxPoint x="150" y="772.94" as="targetPoint" />
          </mxGeometry>
        </mxCell>
        <mxCell id="WpqvaXjn4N4Qf2wbFjVm-64" value="" style="endArrow=none;html=1;entryX=1;entryY=1;entryDx=0;entryDy=0;exitX=0;exitY=0;exitDx=0;exitDy=0;" parent="WIyWlLk6GJQsqaUBKTNV-1" source="WpqvaXjn4N4Qf2wbFjVm-62" target="WpqvaXjn4N4Qf2wbFjVm-51" edge="1">
          <mxGeometry width="50" height="50" relative="1" as="geometry">
            <mxPoint x="859.4308053547661" y="678.6184934127232" as="sourcePoint" />
            <mxPoint x="895" y="662.94" as="targetPoint" />
          </mxGeometry>
        </mxCell>
        <mxCell id="WpqvaXjn4N4Qf2wbFjVm-65" value="" style="endArrow=none;html=1;entryX=0.25;entryY=1;entryDx=0;entryDy=0;exitX=0.5;exitY=0;exitDx=0;exitDy=0;" parent="WIyWlLk6GJQsqaUBKTNV-1" source="WpqvaXjn4N4Qf2wbFjVm-60" target="WpqvaXjn4N4Qf2wbFjVm-51" edge="1">
          <mxGeometry width="50" height="50" relative="1" as="geometry">
            <mxPoint x="900" y="702.94" as="sourcePoint" />
            <mxPoint x="905" y="672.94" as="targetPoint" />
          </mxGeometry>
        </mxCell>
        <mxCell id="WpqvaXjn4N4Qf2wbFjVm-66" value="" style="endArrow=none;html=1;entryX=0.681;entryY=0.988;entryDx=0;entryDy=0;exitX=0.5;exitY=0;exitDx=0;exitDy=0;entryPerimeter=0;" parent="WIyWlLk6GJQsqaUBKTNV-1" source="WpqvaXjn4N4Qf2wbFjVm-61" target="WpqvaXjn4N4Qf2wbFjVm-51" edge="1">
          <mxGeometry width="50" height="50" relative="1" as="geometry">
            <mxPoint x="879.4308053547661" y="698.6184934127232" as="sourcePoint" />
            <mxPoint x="915" y="682.94" as="targetPoint" />
          </mxGeometry>
        </mxCell>
        <mxCell id="WpqvaXjn4N4Qf2wbFjVm-67" value="" style="ellipse;whiteSpace=wrap;html=1;fillColor=none;" parent="WIyWlLk6GJQsqaUBKTNV-1" vertex="1">
          <mxGeometry x="1022.5" y="657.94" width="85" height="50" as="geometry" />
        </mxCell>
        <mxCell id="WpqvaXjn4N4Qf2wbFjVm-68" value="Location" style="ellipse;whiteSpace=wrap;html=1;" parent="WIyWlLk6GJQsqaUBKTNV-1" vertex="1">
          <mxGeometry x="440" y="602.94" width="70" height="40" as="geometry" />
        </mxCell>
        <mxCell id="WpqvaXjn4N4Qf2wbFjVm-69" value="Time" style="ellipse;whiteSpace=wrap;html=1;" parent="WIyWlLk6GJQsqaUBKTNV-1" vertex="1">
          <mxGeometry x="490" y="657.94" width="70" height="40" as="geometry" />
        </mxCell>
        <mxCell id="WpqvaXjn4N4Qf2wbFjVm-70" value="Date" style="ellipse;whiteSpace=wrap;html=1;" parent="WIyWlLk6GJQsqaUBKTNV-1" vertex="1">
          <mxGeometry x="600" y="657.94" width="70" height="40" as="geometry" />
        </mxCell>
        <mxCell id="WpqvaXjn4N4Qf2wbFjVm-73" value="URL" style="ellipse;whiteSpace=wrap;html=1;" parent="WIyWlLk6GJQsqaUBKTNV-1" vertex="1">
          <mxGeometry x="650" y="602.94" width="70" height="40" as="geometry" />
        </mxCell>
        <mxCell id="WpqvaXjn4N4Qf2wbFjVm-74" value="&lt;u&gt;ID&lt;/u&gt;" style="ellipse;whiteSpace=wrap;html=1;" parent="WIyWlLk6GJQsqaUBKTNV-1" vertex="1">
          <mxGeometry x="480" y="462.94" width="70" height="40" as="geometry" />
        </mxCell>
        <mxCell id="WpqvaXjn4N4Qf2wbFjVm-75" value="Name" style="ellipse;whiteSpace=wrap;html=1;" parent="WIyWlLk6GJQsqaUBKTNV-1" vertex="1">
          <mxGeometry x="600" y="462.94" width="70" height="40" as="geometry" />
        </mxCell>
        <mxCell id="WpqvaXjn4N4Qf2wbFjVm-76" value="Hours" style="ellipse;whiteSpace=wrap;html=1;" parent="WIyWlLk6GJQsqaUBKTNV-1" vertex="1">
          <mxGeometry x="180" y="632.82" width="70" height="40" as="geometry" />
        </mxCell>
        <mxCell id="WpqvaXjn4N4Qf2wbFjVm-77" value="" style="endArrow=none;html=1;entryX=0;entryY=1;entryDx=0;entryDy=0;exitX=0.618;exitY=0.041;exitDx=0;exitDy=0;exitPerimeter=0;" parent="WIyWlLk6GJQsqaUBKTNV-1" source="WpqvaXjn4N4Qf2wbFjVm-76" target="WpqvaXjn4N4Qf2wbFjVm-42" edge="1">
          <mxGeometry width="50" height="50" relative="1" as="geometry">
            <mxPoint x="100" y="822.82" as="sourcePoint" />
            <mxPoint x="150" y="772.82" as="targetPoint" />
          </mxGeometry>
        </mxCell>
        <mxCell id="WpqvaXjn4N4Qf2wbFjVm-78" value="" style="endArrow=none;html=1;entryX=0.5;entryY=1;entryDx=0;entryDy=0;exitX=0.25;exitY=0;exitDx=0;exitDy=0;" parent="WIyWlLk6GJQsqaUBKTNV-1" source="WpqvaXjn4N4Qf2wbFjVm-44" target="WpqvaXjn4N4Qf2wbFjVm-74" edge="1">
          <mxGeometry width="50" height="50" relative="1" as="geometry">
            <mxPoint x="100" y="822.82" as="sourcePoint" />
            <mxPoint x="150" y="772.82" as="targetPoint" />
          </mxGeometry>
        </mxCell>
        <mxCell id="WpqvaXjn4N4Qf2wbFjVm-79" value="" style="endArrow=none;html=1;entryX=0.5;entryY=1;entryDx=0;entryDy=0;exitX=0.75;exitY=0;exitDx=0;exitDy=0;" parent="WIyWlLk6GJQsqaUBKTNV-1" source="WpqvaXjn4N4Qf2wbFjVm-44" target="WpqvaXjn4N4Qf2wbFjVm-75" edge="1">
          <mxGeometry width="50" height="50" relative="1" as="geometry">
            <mxPoint x="556.1800000000001" y="542.9399999999997" as="sourcePoint" />
            <mxPoint x="525" y="512.9399999999997" as="targetPoint" />
          </mxGeometry>
        </mxCell>
        <mxCell id="WpqvaXjn4N4Qf2wbFjVm-80" value="" style="endArrow=none;html=1;entryX=1;entryY=0;entryDx=0;entryDy=0;exitX=0.25;exitY=1;exitDx=0;exitDy=0;" parent="WIyWlLk6GJQsqaUBKTNV-1" source="WpqvaXjn4N4Qf2wbFjVm-44" target="WpqvaXjn4N4Qf2wbFjVm-68" edge="1">
          <mxGeometry width="50" height="50" relative="1" as="geometry">
            <mxPoint x="566.1800000000001" y="552.9399999999997" as="sourcePoint" />
            <mxPoint x="535" y="522.9399999999997" as="targetPoint" />
          </mxGeometry>
        </mxCell>
        <mxCell id="WpqvaXjn4N4Qf2wbFjVm-81" value="" style="endArrow=none;html=1;entryX=0.333;entryY=0.986;entryDx=0;entryDy=0;exitX=0.5;exitY=0;exitDx=0;exitDy=0;entryPerimeter=0;" parent="WIyWlLk6GJQsqaUBKTNV-1" source="WpqvaXjn4N4Qf2wbFjVm-69" target="WpqvaXjn4N4Qf2wbFjVm-44" edge="1">
          <mxGeometry width="50" height="50" relative="1" as="geometry">
            <mxPoint x="576.1800000000001" y="562.9399999999997" as="sourcePoint" />
            <mxPoint x="545" y="532.9399999999997" as="targetPoint" />
          </mxGeometry>
        </mxCell>
        <mxCell id="WpqvaXjn4N4Qf2wbFjVm-82" value="" style="endArrow=none;html=1;entryX=0.5;entryY=0;entryDx=0;entryDy=0;" parent="WIyWlLk6GJQsqaUBKTNV-1" source="WpqvaXjn4N4Qf2wbFjVm-44" target="WpqvaXjn4N4Qf2wbFjVm-70" edge="1">
          <mxGeometry width="50" height="50" relative="1" as="geometry">
            <mxPoint x="586.1800000000001" y="572.9399999999997" as="sourcePoint" />
            <mxPoint x="555" y="542.9399999999997" as="targetPoint" />
          </mxGeometry>
        </mxCell>
        <mxCell id="WpqvaXjn4N4Qf2wbFjVm-83" value="" style="endArrow=none;html=1;entryX=0.873;entryY=1.006;entryDx=0;entryDy=0;exitX=0;exitY=0;exitDx=0;exitDy=0;entryPerimeter=0;" parent="WIyWlLk6GJQsqaUBKTNV-1" source="WpqvaXjn4N4Qf2wbFjVm-73" target="WpqvaXjn4N4Qf2wbFjVm-44" edge="1">
          <mxGeometry width="50" height="50" relative="1" as="geometry">
            <mxPoint x="596.1800000000001" y="582.9399999999997" as="sourcePoint" />
            <mxPoint x="565" y="552.9399999999997" as="targetPoint" />
          </mxGeometry>
        </mxCell>
        <mxCell id="WpqvaXjn4N4Qf2wbFjVm-84" value="N" style="text;html=1;strokeColor=none;fillColor=none;align=center;verticalAlign=middle;whiteSpace=wrap;rounded=0;fontStyle=0" parent="WIyWlLk6GJQsqaUBKTNV-1" vertex="1">
          <mxGeometry x="490" y="212.94" width="40" height="20" as="geometry" />
        </mxCell>
        <mxCell id="WpqvaXjn4N4Qf2wbFjVm-86" value="M&lt;span style=&quot;color: rgba(0 , 0 , 0 , 0) ; font-family: monospace ; font-size: 0px ; white-space: nowrap&quot;&gt;%3CmxGraphModel%3E%3Croot%3E%3CmxCell%20id%3D%220%22%2F%3E%3CmxCell%20id%3D%221%22%20parent%3D%220%22%2F%3E%3CmxCell%20id%3D%222%22%20value%3D%22N%22%20style%3D%22text%3Bhtml%3D1%3BstrokeColor%3Dnone%3BfillColor%3Dnone%3Balign%3Dcenter%3BverticalAlign%3Dmiddle%3BwhiteSpace%3Dwrap%3Brounded%3D0%3B%22%20vertex%3D%221%22%20parent%3D%221%22%3E%3CmxGeometry%20x%3D%22480%22%20y%3D%22170.12%22%20width%3D%2240%22%20height%3D%2220%22%20as%3D%22geometry%22%2F%3E%3C%2FmxCell%3E%3C%2Froot%3E%3C%2FmxGraphModel%3E&lt;/span&gt;" style="text;html=1;strokeColor=none;fillColor=none;align=center;verticalAlign=middle;whiteSpace=wrap;rounded=0;" parent="WIyWlLk6GJQsqaUBKTNV-1" vertex="1">
          <mxGeometry x="615" y="212.94" width="40" height="20" as="geometry" />
        </mxCell>
        <mxCell id="WpqvaXjn4N4Qf2wbFjVm-87" value="N" style="text;html=1;strokeColor=none;fillColor=none;align=center;verticalAlign=middle;whiteSpace=wrap;rounded=0;fontStyle=0" parent="WIyWlLk6GJQsqaUBKTNV-1" vertex="1">
          <mxGeometry x="490" y="380.44" width="40" height="20" as="geometry" />
        </mxCell>
        <mxCell id="WpqvaXjn4N4Qf2wbFjVm-88" value="1" style="text;html=1;strokeColor=none;fillColor=none;align=center;verticalAlign=middle;whiteSpace=wrap;rounded=0;fontStyle=0" parent="WIyWlLk6GJQsqaUBKTNV-1" vertex="1">
          <mxGeometry x="615" y="380.44" width="40" height="20" as="geometry" />
        </mxCell>
        <mxCell id="WpqvaXjn4N4Qf2wbFjVm-90" value="1" style="text;html=1;strokeColor=none;fillColor=none;align=center;verticalAlign=middle;whiteSpace=wrap;rounded=0;" parent="WIyWlLk6GJQsqaUBKTNV-1" vertex="1">
          <mxGeometry x="763.09" y="380.44" width="40" height="20" as="geometry" />
        </mxCell>
        <mxCell id="WpqvaXjn4N4Qf2wbFjVm-91" value="N" style="text;html=1;strokeColor=none;fillColor=none;align=center;verticalAlign=middle;whiteSpace=wrap;rounded=0;" parent="WIyWlLk6GJQsqaUBKTNV-1" vertex="1">
          <mxGeometry x="770" y="522.94" width="40" height="20" as="geometry" />
        </mxCell>
        <mxCell id="WpqvaXjn4N4Qf2wbFjVm-92" value="M&lt;span style=&quot;color: rgba(0 , 0 , 0 , 0) ; font-family: monospace ; font-size: 0px ; white-space: nowrap&quot;&gt;%3CmxGraphModel%3E%3Croot%3E%3CmxCell%20id%3D%220%22%2F%3E%3CmxCell%20id%3D%221%22%20parent%3D%220%22%2F%3E%3CmxCell%20id%3D%222%22%20value%3D%22N%22%20style%3D%22text%3Bhtml%3D1%3BstrokeColor%3Dnone%3BfillColor%3Dnone%3Balign%3Dcenter%3BverticalAlign%3Dmiddle%3BwhiteSpace%3Dwrap%3Brounded%3D0%3B%22%20vertex%3D%221%22%20parent%3D%221%22%3E%3CmxGeometry%20x%3D%22480%22%20y%3D%22170.12%22%20width%3D%2240%22%20height%3D%2220%22%20as%3D%22geometry%22%2F%3E%3C%2FmxCell%3E%3C%2Froot%3E%3C%2FmxGraphModel%3E&lt;/span&gt;" style="text;html=1;strokeColor=none;fillColor=none;align=center;verticalAlign=middle;whiteSpace=wrap;rounded=0;" parent="WIyWlLk6GJQsqaUBKTNV-1" vertex="1">
          <mxGeometry x="940" y="392.94" width="40" height="20" as="geometry" />
        </mxCell>
        <mxCell id="WpqvaXjn4N4Qf2wbFjVm-93" value="1" style="text;html=1;strokeColor=none;fillColor=none;align=center;verticalAlign=middle;whiteSpace=wrap;rounded=0;" parent="WIyWlLk6GJQsqaUBKTNV-1" vertex="1">
          <mxGeometry x="940" y="512.94" width="40" height="20" as="geometry" />
        </mxCell>
        <mxCell id="WpqvaXjn4N4Qf2wbFjVm-95" value="N" style="text;html=1;strokeColor=none;fillColor=none;align=center;verticalAlign=middle;whiteSpace=wrap;rounded=0;fontStyle=0" parent="WIyWlLk6GJQsqaUBKTNV-1" vertex="1">
          <mxGeometry x="280" y="492.94" width="40" height="20" as="geometry" />
        </mxCell>
        <mxCell id="WpqvaXjn4N4Qf2wbFjVm-96" value="M&lt;span style=&quot;color: rgba(0 , 0 , 0 , 0) ; font-family: monospace ; font-size: 0px ; white-space: nowrap&quot;&gt;%3CmxGraphModel%3E%3Croot%3E%3CmxCell%20id%3D%220%22%2F%3E%3CmxCell%20id%3D%221%22%20parent%3D%220%22%2F%3E%3CmxCell%20id%3D%222%22%20value%3D%22N%22%20style%3D%22text%3Bhtml%3D1%3BstrokeColor%3Dnone%3BfillColor%3Dnone%3Balign%3Dcenter%3BverticalAlign%3Dmiddle%3BwhiteSpace%3Dwrap%3Brounded%3D0%3B%22%20vertex%3D%221%22%20parent%3D%221%22%3E%3CmxGeometry%20x%3D%22480%22%20y%3D%22170.12%22%20width%3D%2240%22%20height%3D%2220%22%20as%3D%22geometry%22%2F%3E%3C%2FmxCell%3E%3C%2Froot%3E%3C%2FmxGraphModel%3E&lt;/span&gt;" style="text;html=1;strokeColor=none;fillColor=none;align=center;verticalAlign=middle;whiteSpace=wrap;rounded=0;" parent="WIyWlLk6GJQsqaUBKTNV-1" vertex="1">
          <mxGeometry x="360" y="542.94" width="40" height="20" as="geometry" />
        </mxCell>
        <mxCell id="CYcfFciZaYC8JX1MTtvO-0" value="Minitial" style="ellipse;whiteSpace=wrap;html=1;" parent="WIyWlLk6GJQsqaUBKTNV-1" vertex="1">
          <mxGeometry x="265" y="90" width="70" height="40" as="geometry" />
        </mxCell>
        <mxCell id="CYcfFciZaYC8JX1MTtvO-1" value="Minitial" style="ellipse;whiteSpace=wrap;html=1;" parent="WIyWlLk6GJQsqaUBKTNV-1" vertex="1">
          <mxGeometry x="825" y="90" width="70" height="40" as="geometry" />
        </mxCell>
        <mxCell id="CYcfFciZaYC8JX1MTtvO-2" value="" style="endArrow=none;html=1;entryX=0.5;entryY=0;entryDx=0;entryDy=0;exitX=0.5;exitY=1;exitDx=0;exitDy=0;" parent="WIyWlLk6GJQsqaUBKTNV-1" source="CYcfFciZaYC8JX1MTtvO-0" target="WpqvaXjn4N4Qf2wbFjVm-26" edge="1">
          <mxGeometry width="50" height="50" relative="1" as="geometry">
            <mxPoint x="100" y="820" as="sourcePoint" />
            <mxPoint x="150" y="770" as="targetPoint" />
          </mxGeometry>
        </mxCell>
        <mxCell id="CYcfFciZaYC8JX1MTtvO-3" value="" style="endArrow=none;html=1;entryX=0.5;entryY=0;entryDx=0;entryDy=0;exitX=0.5;exitY=1;exitDx=0;exitDy=0;" parent="WIyWlLk6GJQsqaUBKTNV-1" source="CYcfFciZaYC8JX1MTtvO-1" target="WpqvaXjn4N4Qf2wbFjVm-4" edge="1">
          <mxGeometry width="50" height="50" relative="1" as="geometry">
            <mxPoint x="310" y="140" as="sourcePoint" />
            <mxPoint x="310" y="222.94000000000005" as="targetPoint" />
          </mxGeometry>
        </mxCell>
        <mxCell id="Y_kw2KocGSCzH336pDwu-0" value="Attendace&lt;br&gt;Count" style="ellipse;whiteSpace=wrap;html=1;" vertex="1" parent="WIyWlLk6GJQsqaUBKTNV-1">
          <mxGeometry x="541.1800000000001" y="712.94" width="70" height="40" as="geometry" />
        </mxCell>
        <mxCell id="Y_kw2KocGSCzH336pDwu-2" value="" style="endArrow=none;html=1;entryX=0.5;entryY=1;entryDx=0;entryDy=0;exitX=0.5;exitY=0;exitDx=0;exitDy=0;" edge="1" parent="WIyWlLk6GJQsqaUBKTNV-1" source="Y_kw2KocGSCzH336pDwu-0" target="WpqvaXjn4N4Qf2wbFjVm-44">
          <mxGeometry width="50" height="50" relative="1" as="geometry">
            <mxPoint x="535" y="667.94" as="sourcePoint" />
            <mxPoint x="566.1400000000001" y="602.1000000000001" as="targetPoint" />
          </mxGeometry>
        </mxCell>
      </root>
    </mxGraphModel>
  </diagram>
</mxfile>
